<?xml version="1.0" encoding="UTF-8"?>
<svg version="1.1" xmlns="http://www.w3.org/2000/svg" width="500" height="500">
<path d="M0 0 C165 0 330 0 500 0 C500 165 500 330 500 500 C335 500 170 500 0 500 C0 335 0 170 0 0 Z " fill="#F8F4F1" transform="translate(0,0)"/>
<path d="M0 0 C1.98 0 3.96 0 6 0 C6.26855804 0.79354385 6.26855804 0.79354385 6.5425415 1.6031189 C8.42139568 7.15303488 10.30410308 12.70163323 12.18896484 18.24951172 C12.89013182 20.31493732 13.5903446 22.38068713 14.28955078 24.44677734 C15.29984496 27.43154088 16.3136655 30.41508748 17.328125 33.3984375 C17.63558655 34.30927094 17.9430481 35.22010437 18.25982666 36.15853882 C21.68652569 46.25853492 21.68652569 46.25853492 26 56 C23.03 56 20.06 56 17 56 C16.81824219 55.20335937 16.63648438 54.40671875 16.44921875 53.5859375 C15.11631213 47.96722343 13.63264083 43.15081901 11 38 C10.67823239 36.66763218 10.39286995 35.32624307 10.1328125 33.98046875 C8.99804803 28.65746024 7.26823627 23.61851214 5.4375 18.5 C4.96280273 17.14261719 4.96280273 17.14261719 4.47851562 15.7578125 C3.27327807 11.56988497 3.27327807 11.56988497 1 8 C0.01 10.64 -0.98 13.28 -2 16 C-3.28080392 12.15758823 -2.30805584 10.77882797 -1 7 C-0.62468554 4.67305036 -0.28082798 2.34023315 0 0 Z " fill="#101010" transform="translate(381,213)"/>
<path d="M0 0 C4.16642697 -0.11703447 8.3324259 -0.18753101 12.5 -0.25 C13.67304688 -0.28351563 14.84609375 -0.31703125 16.0546875 -0.3515625 C24.10801036 -0.44204927 30.06462485 0.17308007 35.984375 5.9296875 C37.23832077 8.48580772 37.33468191 10.28815605 37.25 13.125 C37.23453125 13.99382812 37.2190625 14.86265625 37.203125 15.7578125 C37 18 37 18 36 20 C34.02 20 32.04 20 30 20 C30.165 19.484375 30.33 18.96875 30.5 18.4375 C31.44995377 13.80647538 31.79755228 10.32925381 29.3125 6.1875 C24.94624586 2.0572596 20.54905235 1.70368518 14.6875 1.375 C12.480625 1.25125 10.27375 1.1275 8 1 C8 7.27 8 13.54 8 20 C6.02 20 4.04 20 2 20 C1.93941406 18.80761719 1.87882813 17.61523438 1.81640625 16.38671875 C1.73198851 14.82030075 1.64734113 13.25389512 1.5625 11.6875 C1.52318359 10.90181641 1.48386719 10.11613281 1.44335938 9.30664062 C1.40146484 8.54931641 1.35957031 7.79199219 1.31640625 7.01171875 C1.26141968 5.96697388 1.26141968 5.96697388 1.20532227 4.90112305 C1.04418847 2.7783428 1.04418847 2.7783428 0 0 Z " fill="#2E2D2D" transform="translate(194,212)"/>
<path d="M0 0 C15.18 0 30.36 0 46 0 C46 2.64 46 5.28 46 8 C45.071875 7.360625 44.14375 6.72125 43.1875 6.0625 C39.10903638 3.42349413 36.06770725 2.8291053 31.3125 2.4375 C29.559375 2.293125 27.80625 2.14875 26 2 C26 7.94 26 13.88 26 20 C24.02 20 22.04 20 20 20 C20 14.06 20 8.12 20 2 C10.18371038 2.31588099 10.18371038 2.31588099 2 7 C1.34 7 0.68 7 0 7 C0 4.69 0 2.38 0 0 Z " fill="#9C9A98" transform="translate(93,212)"/>
<path d="M0 0 C5.27483225 3.61015135 8.8869588 8.13687746 11.8671875 13.78125 C11.8671875 14.44125 11.8671875 15.10125 11.8671875 15.78125 C9.1171875 16.140625 9.1171875 16.140625 5.8671875 15.78125 C3.7421875 13.296875 3.7421875 13.296875 1.8671875 10.03125 C-1.47175194 4.27157946 -4.71919272 0.91912326 -11.1328125 -1.21875 C-20.64709536 -1.94610844 -20.64709536 -1.94610844 -29.1328125 1.78125 C-33.44368269 6.09212019 -35.24317638 10.0128871 -37.1328125 15.78125 C-38.7828125 15.78125 -40.4328125 15.78125 -42.1328125 15.78125 C-40.51536004 8.5925724 -35.75645242 3.85829827 -30.1328125 -0.59375 C-20.19607555 -5.97614918 -9.72115809 -5.55494748 0 0 Z " fill="#131212" transform="translate(294.1328125,216.21875)"/>
<path d="M0 0 C2.625 -0.5625 2.625 -0.5625 6 0 C7.68940963 2.08451349 8.98052486 4.3010599 10.359375 6.6015625 C13.15621486 10.69027601 17.14105926 13.99273607 21.8515625 15.65234375 C24.6738141 16.10903537 27.39260805 16.09355861 30.25 16.0625 C31.86648438 16.04896484 31.86648438 16.04896484 33.515625 16.03515625 C34.74539063 16.01775391 34.74539063 16.01775391 36 16 C30.71778707 19.52147528 24.13152901 18.61566582 18 18 C12.23543983 16.06246728 7.9847805 12.55403485 4 8 C3.236875 7.13375 2.47375 6.2675 1.6875 5.375 C0 3 0 3 0 0 Z " fill="#191918" transform="translate(253,251)"/>
<path d="M0 0 C2.31 0 4.62 0 7 0 C7.54269531 0.96421875 8.08539063 1.9284375 8.64453125 2.921875 C9.3670425 4.19799877 10.08970683 5.47403588 10.8125 6.75 C11.34713867 7.70132812 11.34713867 7.70132812 11.89257812 8.671875 C12.24384766 9.290625 12.59511719 9.909375 12.95703125 10.546875 C13.27647705 11.11245117 13.59592285 11.67802734 13.92504883 12.26074219 C15.15857477 14.25657203 16.59224566 16.12299421 18 18 C14.7 18 11.4 18 8 18 C7.13375 15.7725 7.13375 15.7725 6.25 13.5 C4.39819996 8.85727276 2.30008451 4.43587728 0 0 Z " fill="#0C0C0B" transform="translate(338,251)"/>
<path d="M0 0 C2.64 0 5.28 0 8 0 C8.9802271 2.43707838 9.95922171 4.87463945 10.9375 7.3125 C11.21529297 8.00279297 11.49308594 8.69308594 11.77929688 9.40429688 C12.92140128 12.25267773 14.02930231 15.08790694 15 18 C12.03 18 9.06 18 6 18 C5.85304687 17.05640625 5.85304687 17.05640625 5.703125 16.09375 C4.64862021 10.05761911 2.97532864 5.35559155 0 0 Z " fill="#0B0B0B" transform="translate(174,251)"/>
<path d="M0 0 C1.98 0 3.96 0 6 0 C7.00380916 2.79035046 8.0031945 5.58214855 9 8.375 C9.28617188 9.1690625 9.57234375 9.963125 9.8671875 10.78125 C10.13789063 11.54179687 10.40859375 12.30234375 10.6875 13.0859375 C10.93886719 13.7876709 11.19023437 14.4894043 11.44921875 15.21240234 C12 17 12 17 12 19 C10.02 19 8.04 19 6 19 C4.68 15.37 3.36 11.74 2 8 C1.34 8 0.68 8 0 8 C0 5.36 0 2.72 0 0 Z " fill="#0D0D0C" transform="translate(163,213)"/>
<path d="M0 0 C2.64 0 5.28 0 8 0 C7.67 6.27 7.34 12.54 7 19 C5.02 19 3.04 19 1 19 C0.67 12.73 0.34 6.46 0 0 Z " fill="#0B0B0B" transform="translate(313,213)"/>
<path d="M0 0 C2.64 0 5.28 0 8 0 C7.67 6.27 7.34 12.54 7 19 C5.02 19 3.04 19 1 19 C0.67 12.73 0.34 6.46 0 0 Z " fill="#0B0B0A" transform="translate(237,213)"/>
<path d="M0 0 C1.98 0 3.96 0 6 0 C6.06058594 1.13179687 6.12117188 2.26359375 6.18359375 3.4296875 C6.26799917 4.91147145 6.35264717 6.3932416 6.4375 7.875 C6.47681641 8.62136719 6.51613281 9.36773437 6.55664062 10.13671875 C6.71573624 14.19986864 6.71573624 14.19986864 8 18 C4.7 18 1.4 18 -2 18 C-1.505 16.515 -1.505 16.515 -1 15 C-0.77281504 12.43365139 -0.58391816 9.88321893 -0.4375 7.3125 C-0.39431641 6.61060547 -0.35113281 5.90871094 -0.30664062 5.18554688 C-0.2008264 3.45724794 -0.09993419 1.7286489 0 0 Z " fill="#0E0E0E" transform="translate(113,251)"/>
<path d="M0 0 C1.98 0 3.96 0 6 0 C6.06058594 1.13179687 6.12117188 2.26359375 6.18359375 3.4296875 C6.26799917 4.91147145 6.35264717 6.3932416 6.4375 7.875 C6.47681641 8.62136719 6.51613281 9.36773437 6.55664062 10.13671875 C6.71573624 14.19986864 6.71573624 14.19986864 8 18 C4.7 18 1.4 18 -2 18 C-1.67 17.34 -1.34 16.68 -1 16 C-0.7677354 13.28737884 -0.58063765 10.59226874 -0.4375 7.875 C-0.39431641 7.12089844 -0.35113281 6.36679687 -0.30664062 5.58984375 C-0.2005168 3.72678112 -0.09974999 1.86341476 0 0 Z " fill="#0C0C0C" transform="translate(314,251)"/>
<path d="M0 0 C1.98 0 3.96 0 6 0 C6.06058594 1.13179687 6.12117187 2.26359375 6.18359375 3.4296875 C6.26799917 4.91147145 6.35264717 6.3932416 6.4375 7.875 C6.47681641 8.62136719 6.51613281 9.36773437 6.55664062 10.13671875 C6.71573624 14.19986864 6.71573624 14.19986864 8 18 C4.7 18 1.4 18 -2 18 C-1.67 17.34 -1.34 16.68 -1 16 C-0.7677354 13.28737884 -0.58063765 10.59226874 -0.4375 7.875 C-0.39431641 7.12089844 -0.35113281 6.36679687 -0.30664062 5.58984375 C-0.2005168 3.72678112 -0.09974999 1.86341476 0 0 Z " fill="#0C0C0C" transform="translate(238,251)"/>
<path d="M0 0 C1.98 0 3.96 0 6 0 C6 6.27 6 12.54 6 19 C4.02 19 2.04 19 0 19 C0 12.73 0 6.46 0 0 Z " fill="#0F0E0E" transform="translate(113,213)"/>
<path d="M0 0 C1.65 0 3.3 0 5 0 C5.06058594 0.96421875 5.12117187 1.9284375 5.18359375 2.921875 C5.26738281 4.18515625 5.35117188 5.4484375 5.4375 6.75 C5.55931641 8.62945312 5.55931641 8.62945312 5.68359375 10.546875 C5.92253426 14.12364137 5.92253426 14.12364137 7 18 C4.03 18 1.06 18 -2 18 C-1.67 16.68 -1.34 15.36 -1 14 C-0.77882441 11.5861824 -0.59427758 9.16885403 -0.4375 6.75 C-0.35371094 5.48671875 -0.26992187 4.2234375 -0.18359375 2.921875 C-0.12300781 1.95765625 -0.06242188 0.9934375 0 0 Z " fill="#030303" transform="translate(196,251)"/>
<path d="M0 0 C2.31 0 4.62 0 7 0 C7 6.27 7 12.54 7 19 C5.35 19 3.7 19 2 19 C1.93941406 17.79601562 1.87882813 16.59203125 1.81640625 15.3515625 C1.73200268 13.77602923 1.64735459 12.20050904 1.5625 10.625 C1.50352539 9.43390625 1.50352539 9.43390625 1.44335938 8.21875 C1.31106596 3.97398779 1.31106596 3.97398779 0 0 Z " fill="#010101" transform="translate(194,213)"/>
<path d="M0 0 C-0.33 0.66 -0.66 1.32 -1 2 C-3.29296875 2.30859375 -3.29296875 2.30859375 -6.1875 2.4375 C-12.48794763 2.92653863 -16.14122142 4.14122142 -20.6875 8.6875 C-23.38795081 12.14581926 -24.64224433 15.85527218 -26 20 C-27.65 20 -29.3 20 -31 20 C-29.38254754 12.8113224 -24.62363992 8.07704827 -19 3.625 C-12.68767047 0.20582151 -7.01365466 -0.28627162 0 0 Z " fill="#444342" transform="translate(283,212)"/>
<path d="M0 0 C1.125 5.75 1.125 5.75 0 8 C-2.875 8.125 -2.875 8.125 -6 8 C-6.66 7.34 -7.32 6.68 -8 6 C-7.75 2.9375 -7.75 2.9375 -7 0 C-4.3333581 -1.33332095 -2.83319697 -0.67102033 0 0 Z " fill="#CFCBC9" transform="translate(360,237)"/>
<path d="M0 0 C1.32 0 2.64 0 4 0 C2.75731412 6.21342939 -1.15828145 10.17230175 -6 14 C-8.2578125 14.73046875 -8.2578125 14.73046875 -10 15 C-9.61328125 14.5875 -9.2265625 14.175 -8.828125 13.75 C-4.94262217 9.4413236 -2.40726392 5.2774632 0 0 Z " fill="#171616" transform="translate(301,251)"/>
<path d="M0 0 C2.64 0 5.28 0 8 0 C7.31550781 0.52078125 6.63101562 1.0415625 5.92578125 1.578125 C2.46302925 4.44448847 -0.65959032 7.55139598 -3.8125 10.75 C-4.40998047 11.35199219 -5.00746094 11.95398438 -5.62304688 12.57421875 C-7.08433504 14.04719723 -8.54248939 15.52328354 -10 17 C-10.66 16.67 -11.32 16.34 -12 16 C-10.95199219 15.00419922 -10.95199219 15.00419922 -9.8828125 13.98828125 C-8.97273438 13.10527344 -8.06265625 12.22226563 -7.125 11.3125 C-5.76761719 10.00732422 -5.76761719 10.00732422 -4.3828125 8.67578125 C-2.15544278 6.1745546 0 3.53694224 0 0 Z " fill="#7E7C7B" transform="translate(346,213)"/>
<path d="M0 0 C-0.33 1.98 -0.66 3.96 -1 6 C-0.34 6 0.32 6 1 6 C0.67 6.99 0.34 7.98 0 9 C-0.33 8.34 -0.66 7.68 -1 7 C-1.66 7 -2.32 7 -3 7 C-3 7.66 -3 8.32 -3 9 C-3.66 9 -4.32 9 -5 9 C-5.66 6.36 -6.32 3.72 -7 1 C-4 0 -4 0 0 0 Z " fill="#B1AEAC" transform="translate(212,236)"/>
<path d="M0 0 C4.29 0 8.58 0 13 0 C13 2.31 13 4.62 13 7 C12.154375 6.38125 11.30875 5.7625 10.4375 5.125 C7.08627655 2.86952264 3.91143146 1.93874355 0 1 C0 0.67 0 0.34 0 0 Z " fill="#171717" transform="translate(126,213)"/>
<path d="M0 0 C1 2 1 2 0.44140625 3.91796875 C0.15136719 4.66691406 -0.13867188 5.41585938 -0.4375 6.1875 C-1.92635766 10.36983653 -2.28150106 13.58981666 -2 18 C-3.98 18 -5.96 18 -8 18 C-7.67386719 17.28714844 -7.34773438 16.57429688 -7.01171875 15.83984375 C-4.6136931 10.58399401 -2.24713495 5.32216173 0 0 Z " fill="#434241" transform="translate(370,251)"/>
<path d="M0 0 C3.63 0 7.26 0 11 0 C10.01 0.66 9.02 1.32 8 2 C6.989375 2.70125 5.97875 3.4025 4.9375 4.125 C2 6 2 6 0 6 C0 4.02 0 2.04 0 0 Z " fill="#10100F" transform="translate(93,213)"/>
<path d="M0 0 C0.33 1.32 0.66 2.64 1 4 C2.32 4 3.64 4 5 4 C5 2.68 5 1.36 5 0 C5.66 0 6.32 0 7 0 C7 2.97 7 5.94 7 9 C6.34 9 5.68 9 5 9 C5 7.68 5 6.36 5 5 C3.68 5 2.36 5 1 5 C0.67 6.32 0.34 7.64 0 9 C0 6.03 0 3.06 0 0 Z " fill="#8D8B89" transform="translate(255,236)"/>
<path d="M0 0 C0.66 0 1.32 0 2 0 C2 1.32 2 2.64 2 4 C3.32 4 4.64 4 6 4 C6.33 2.68 6.66 1.36 7 0 C7 2.97 7 5.94 7 9 C6.67 7.68 6.34 6.36 6 5 C4.68 5 3.36 5 2 5 C2 6.32 2 7.64 2 9 C1.34 9 0.68 9 0 9 C0 6.03 0 3.06 0 0 Z " fill="#8E8C8A" transform="translate(141,236)"/>
<path d="M0 0 C2.475 0.495 2.475 0.495 5 1 C4.67 2.65 4.34 4.3 4 6 C3.01 5.67 2.02 5.34 1 5 C0.67 6.32 0.34 7.64 0 9 C0 6.03 0 3.06 0 0 Z " fill="#9C9A98" transform="translate(372,236)"/>
<path d="M0 0 C0.66 0 1.32 0 2 0 C3.06775224 1.96466413 4.06553465 3.96855359 5 6 C4.67 6.66 4.34 7.32 4 8 C3.67 7.01 3.34 6.02 3 5 C1.68 5.99 0.36 6.98 -1 8 C-1.66 7.67 -2.32 7.34 -3 7 C-2.01 4.69 -1.02 2.38 0 0 Z " fill="#B0ADAB" transform="translate(161,237)"/>
<path d="M0 0 C1.98 0 3.96 0 6 0 C5.67 0.66 5.34 1.32 5 2 C4.01 1.67 3.02 1.34 2 1 C2 1.99 2 2.98 2 4 C2.99 4.33 3.98 4.66 5 5 C4.01 5 3.02 5 2 5 C2 6.32 2 7.64 2 9 C1.34 9 0.68 9 0 9 C0 6.03 0 3.06 0 0 Z " fill="#A5A3A1" transform="translate(285,236)"/>
<path d="M0 0 C0.89694794 3.58779175 1.08304117 6.34618837 1 10 C-0.98 10 -2.96 10 -5 10 C-3.35 6.7 -1.7 3.4 0 0 Z " fill="#272625" transform="translate(149,259)"/>
<path d="M0 0 C-1.37154504 2.95409701 -2.98863724 5.44008376 -5 8 C-5.99 7.34 -6.98 6.68 -8 6 C-7.0479279 4.99403703 -6.08812654 3.99538437 -5.125 3 C-4.59132813 2.443125 -4.05765625 1.88625 -3.5078125 1.3125 C-2 0 -2 0 0 0 Z " fill="#272726" transform="translate(263,218)"/>
<path d="M0 0 C2.64 0 5.28 0 8 0 C5.31158141 2.25245881 3.35358125 3.88213958 0 5 C0 3.35 0 1.7 0 0 Z " fill="#0C0B0B" transform="translate(346,213)"/>
<path d="M0 0 C0 3 0 3 -1.3125 4.38671875 C-2.875 5.59114583 -4.4375 6.79557292 -6 8 C-6.66 7.67 -7.32 7.34 -8 7 C-5.42215154 4.35247996 -3.08351902 2.05567935 0 0 Z " fill="#232222" transform="translate(299,258)"/>
</svg>
